<?xml version="1.0" encoding="UTF-8"?>
<svg width="60px" height="60px" viewBox="0 0 60 60" version="1.1" xmlns="http://www.w3.org/2000/svg" xmlns:xlink="http://www.w3.org/1999/xlink">
    <!-- Generator: Sketch 58 (84663) - https://sketch.com -->
    <title>Icon - Password Reset</title>
    <desc>Created with Sketch.</desc>
    <g id="Page-1" stroke="none" stroke-width="1" fill="none" fill-rule="evenodd">
        <g id="Verification-Code----iPhone-X" transform="translate(-158.000000, -122.000000)">
            <g id="Icon---Password-Reset" transform="translate(158.000000, 122.000000)">
                <g id="Group-3">
                    <g id="Group-4" fill="#EEF8FF">
                        <circle id="Oval" cx="30" cy="30" r="30"></circle>
                    </g>
                    <g id="noun_Password-Recovery_254073" transform="translate(1.000000, 0.000000)" fill="#DCECF4" fill-rule="nonzero">
                        <path d="M3.32157336,38.8742328 C3.4597181,39.2877759 3.252501,39.770243 2.8380668,39.9770145 C2.76899444,39.9770145 2.63084971,40.0459384 2.56177734,40.0459384 C2.21641551,40.0459384 1.87105368,39.8391668 1.73290895,39.4945475 C-0.132044926,34.325258 -0.477406755,28.8113492 0.627751098,23.4352881 C1.80198132,17.9213792 4.49580358,12.8899374 8.43292843,8.89235353 C13.9587177,3.24059698 21.2803885,0.139023268 29.2237105,0.00117554747 C37.0979602,-0.0677483129 44.5577757,2.89597768 50.1526374,8.40988651 L50.7742887,9.03020125 L50.7052163,5.10154121 C50.7052163,4.61907419 51.0505781,4.27445489 51.5340847,4.27445489 C52.0175912,4.27445489 52.3629531,4.61907419 52.3629531,5.10154121 L52.4320254,11.0979171 C52.4320254,11.5803841 52.0866636,11.9250034 51.6031571,11.9250034 L45.5938612,11.9939272 C45.5938612,11.9939272 45.5938612,11.9939272 45.5938612,11.9939272 C45.1103547,11.9939272 44.7649928,11.6493079 44.7649928,11.1668409 C44.7649928,10.6843739 45.1103547,10.3397546 45.5938612,10.3397546 L49.5309861,10.2708307 L48.9093348,9.650516 C43.659835,4.48122647 36.6144537,1.6553482 29.1546382,1.72427206 C21.6948227,1.79319592 14.7875861,4.75692191 9.60715865,10.0640592 C2.07827078,17.7835315 -0.339262024,28.8113492 3.32157336,38.8742328 Z M56.1619332,19.024161 C55.747499,19.1620087 55.4712095,19.6444757 55.6784266,20.1269428 C59.339262,30.1898264 56.9217292,41.217644 49.3928413,48.8681925 C44.2124139,54.1753298 37.236105,57.1390558 29.8453618,57.2079796 C22.3855463,57.2769035 15.4092374,54.5199491 10.0906652,49.2817357 L9.46901392,48.7303448 L13.4061388,48.6614209 C13.8896453,48.6614209 14.2350072,48.2478778 14.2350072,47.8343346 C14.2350072,47.3518676 13.820573,47.0072483 13.4061388,47.0072483 C13.4061388,47.0072483 13.4061388,47.0072483 13.4061388,47.0072483 L7.39684295,47.0761722 C6.91333638,47.0761722 6.56797456,47.4897153 6.56797456,47.9032585 L6.63704692,53.8996343 C6.63704692,54.3821014 7.05148112,54.7267207 7.46591531,54.7267207 C7.46591531,54.7267207 7.46591531,54.7267207 7.46591531,54.7267207 C7.94942187,54.7267207 8.2947837,54.3131775 8.2947837,53.8996343 L8.22571134,49.9709743 L8.84736263,50.591289 C14.3731519,56.036274 21.6948227,59 29.4309276,59 C29.5690724,59 29.6381447,59 29.7762895,59 C37.6505392,58.9310761 45.0412823,55.7605786 50.5670716,50.108822 C54.5041964,46.1112381 57.1980187,41.0797963 58.3722489,35.5658875 C59.4774068,30.2587502 59.1320449,24.6759175 57.267091,19.5755519 C57.1289463,19.0930849 56.6454398,18.8863133 56.1619332,19.024161 Z" id="Shape"></path>
                    </g>
                    <g id="24px-(22)" transform="translate(19.000000, 13.000000)">
                        <polygon id="Path" points="0 0 24 0 24 24 0 24"></polygon>
                        <path d="M18,8 L17,8 L17,6 C17,3.24 14.76,1 12,1 C9.24,1 7,3.24 7,6 L7,8 L6,8 C4.9,8 4,8.9 4,10 L4,20 C4,21.1 4.9,22 6,22 L18,22 C19.1,22 20,21.1 20,20 L20,10 C20,8.9 19.1,8 18,8 Z M12,17 C10.9,17 10,16.1 10,15 C10,13.9 10.9,13 12,13 C13.1,13 14,13.9 14,15 C14,16.1 13.1,17 12,17 Z M15.1,8 L8.9,8 L8.9,6 C8.9,4.29 10.29,2.9 12,2.9 C13.71,2.9 15.1,4.29 15.1,6 L15.1,8 Z" id="Shape" fill="#59595B" fill-rule="nonzero"></path>
                    </g>
                </g>
                <rect id="Rectangle" fill="#DCECF4" x="18" y="38" width="26" height="8" rx="1"></rect>
                <g id="Group-5" transform="translate(23.000000, 41.000000)" fill="#59595B">
                    <circle id="Oval" cx="1" cy="1" r="1"></circle>
                    <circle id="Oval" cx="6" cy="1" r="1"></circle>
                    <circle id="Oval" cx="11" cy="1" r="1"></circle>
                    <circle id="Oval" cx="16" cy="1" r="1"></circle>
                </g>
            </g>
        </g>
    </g>
</svg>