<?xml version="1.0" encoding="UTF-8"?>
<svg width="116px" height="23px" viewBox="0 0 116 23" version="1.1" xmlns="http://www.w3.org/2000/svg" xmlns:xlink="http://www.w3.org/1999/xlink">
    <!-- Generator: Sketch 58 (84663) - https://sketch.com -->
    <title>Page 1</title>
    <desc>Created with Sketch.</desc>
    <defs>
        <polygon id="path-1" points="12.6287353 13.7998378 12.6287353 0.0968648649 0.297967647 0.0968648649 0.297967647 13.7998378 12.6287353 13.7998378"></polygon>
        <polygon id="path-3" points="0.126829268 18 0.126829268 0.0279918367 15.9348293 0.0279918367 15.9348293 18"></polygon>
    </defs>
    <g id="Calendar-Views" stroke="none" stroke-width="1" fill="none" fill-rule="evenodd">
        <g id="Artboard" transform="translate(-83.000000, -99.000000)">
            <g id="main-navigation" transform="translate(66.000000, 87.000000)">
                <g id="Page-1" transform="translate(17.000000, 12.000000)">
                    <path d="M35.5838292,10.4415021 C35.9536229,8.63230706 36.9302856,7.18263151 38.7028957,7.03418473 C40.2631562,6.90352064 41.6059765,8.2225321 41.680517,10.4415021 L35.5838292,10.4415021 Z M38.9465159,5 C35.3685707,5 33,7.7474251 33,11.9998067 C33,15.9622532 35.343845,19 39.318855,19 C42.3012032,19 43.8011041,17.0450642 43.8011041,17.0450642 L42.7575367,15.2223388 C42.7575367,15.2223388 41.6059765,16.7806434 39.443574,16.7806434 C37.2073582,16.7806434 35.6340077,15.1693773 35.4849266,12.317189 L43.9243686,12.317189 C43.9243686,12.317189 44,11.6035621 44,11.2606655 C44,7.80038658 42.0895809,5 38.9465159,5 L38.9465159,5 Z" id="Fill-3" fill="#FEFEFE"></path>
                    <path d="M73.5651479,16.7280685 C70.9976019,16.7280685 68.7042366,15.011266 68.7042366,11.9735193 C68.7042366,9.14761839 70.7246203,7.19268259 73.4284572,7.19268259 C74.4388489,7.19268259 75.9952038,7.61560127 75.9952038,8.56620185 L75.9952038,9.30611625 L78.3988809,9.30611625 L78.3988809,7.93259699 C78.3988809,5.66066547 75.0943245,5 73.4284572,5 C68.9768185,5 66,8.0648074 66,12.0001933 C66,16.0152147 69.0311751,19 73.373701,19 C77.0335731,19 79,16.701781 79,16.701781 L77.852518,14.8790556 C77.852518,14.8790556 76.1590727,16.7280685 73.5651479,16.7280685" id="Fill-5" fill="#FEFEFE"></path>
                    <g id="Group-9" transform="translate(103.000000, 5.000000)">
                        <mask id="mask-2" fill="white">
                            <use xlink:href="#path-1"></use>
                        </mask>
                        <g id="Clip-8"></g>
                        <path d="M3.01458529,5.42291892 C3.40649706,3.25102703 4.97414412,2.08789189 6.90770294,2.08789189 C8.55335,2.08789189 9.93785,3.25102703 10.0162324,5.42291892 L3.01458529,5.42291892 Z M12.62885,6.2247027 C12.62885,2.83783784 10.6436735,0.0968648649 6.93370294,0.0968648649 C3.17135,0.0968648649 0.297967647,2.786 0.297967647,6.94816216 C0.297967647,10.8265405 3.14535,13.7998378 7.32446765,13.7998378 C10.4609088,13.7998378 12.4197029,11.8863784 12.4197029,11.8863784 L11.3227324,10.1023243 C11.3227324,10.1023243 9.72908529,11.6275676 7.45561471,11.6275676 C5.10490882,11.6275676 3.06696765,10.0504865 2.91020294,7.25881081 L12.5497029,7.25881081 C12.5497029,7.25881081 12.62885,6.56032432 12.62885,6.2247027 L12.62885,6.2247027 Z" id="Fill-7" fill="#FEFEFE" mask="url(#mask-2)"></path>
                    </g>
                    <path d="M49.9454181,16.8712687 C49.9014464,16.8712687 49.2795608,16.8843284 49.2795608,16.8843284 C48.9263091,16.8843284 48.7238176,16.7059701 48.7238176,16.3231343 L48.7238176,2.63171642 C48.7238176,1.48470149 48.2445629,1 47.1079497,1 L45.0549514,1 L45.0538429,1 C44.4718644,1 44,1.47649254 44,2.06455224 C44,2.65298507 44.4718644,3.12947761 45.0538429,3.12947761 C45.0978146,3.12947761 45.7193307,3.11641791 45.7193307,3.11641791 C46.0733214,3.11641791 46.2750739,3.29477612 46.2750739,3.67761194 L46.2750739,17.3682836 C46.2750739,18.5160448 46.7554371,19 47.8909417,19 L49.9454181,19 C50.527766,19 51,18.5235075 51,17.9354478 C51,17.3477612 50.527766,16.8712687 49.9454181,16.8712687" id="Fill-10" fill="#FEFEFE"></path>
                    <path d="M88.0643251,12.6871462 C88.0643251,14.6683695 86.7614105,16.9395278 84.7449694,16.9395278 C83.1714689,16.9395278 82.4097263,15.8833909 82.4097263,14.8005799 C82.4097263,12.3434765 85.6553184,12.2379401 87.4493897,12.2379401 L88.0643251,12.2379401 L88.0643251,12.6871462 Z M91.9730687,16.4775645 C91.9302499,16.4775645 90.9655678,16.4910949 90.9655678,16.4910949 C90.6208586,16.4910949 90.4251156,16.305923 90.4251156,15.9096783 L90.4251156,10.2304294 C90.4251156,7.27193152 89.3427717,5 85.310969,5 C84.1062858,5 81.0085804,5.3173823 81.0085804,7.50967831 L81.0085804,8.83023609 L83.2452324,8.83023609 L83.2452324,8.0648074 C83.2452324,7.19268259 84.6960337,7.03418473 85.2861413,7.03418473 C87.228819,7.03418473 88.0398572,7.87963551 88.0398572,10.2304294 L88.0398572,10.3622532 L87.4986853,10.3622532 C85.4092004,10.3622532 80,10.626674 80,14.9320171 C80,17.6001933 82.0898447,19 84.2286252,19 C87.2039913,19 88.1873841,16.3588844 88.1873841,16.3588844 L88.2366797,16.3588844 C88.2366797,16.3588844 88.1873841,16.701781 88.1873841,17.1509872 C88.1873841,18.1023609 88.6299648,18.6830043 89.7360569,18.6830043 L91.9737884,18.6830043 C92.5408674,18.6830043 93,18.1889549 93,17.5797045 C93,16.9712274 92.5401478,16.4775645 91.9730687,16.4775645 L91.9730687,16.4775645 Z" id="Fill-12" fill="#FEFEFE"></path>
                    <path d="M103,6.07575056 C103,5.48391855 102.518752,5.00338405 101.923138,5.00338405 L101.252788,5.00338405 C99.2409841,5.00338405 97.7451532,6.33557008 97.1257592,8.23702782 L97.0744261,8.23702782 C97.0744261,8.23702782 97.1257592,7.85162261 97.1257592,7.33799965 L97.1257592,6.51567652 C97.1257592,5.46248626 96.5848746,5 95.4495076,5 L93.0772398,5 L93.0772398,5.00338405 C92.48238,5.00338405 92,5.48391855 92,6.07575056 C92,6.66833459 92.48238,7.14886909 93.0772398,7.14886909 L94.1344748,7.14886909 C94.4956936,7.14886909 94.7021583,7.32859953 94.7021583,7.71400474 L94.7021583,18 L97.2035137,18 L97.2035137,12.681408 C97.2035137,11.8854052 97.2808908,11.0886504 97.513022,10.3441604 C98.106372,8.41713426 99.5765364,7.11051657 101.175411,7.11051657 C101.473973,7.11051657 101.730639,7.13044484 101.850667,7.14134899 C101.875202,7.14360502 101.898603,7.14886909 101.92276,7.14886909 L101.923138,7.14886909 C102.518752,7.14886909 103,6.66833459 103,6.07575056" id="Fill-14" fill="#FEFEFE"></path>
                    <path d="M21.8660074,15.9175025 L21.331976,15.9175025 C20.9616056,15.9175025 20.7494667,15.7415737 20.7494667,15.3651081 L20.7494667,9.86871027 C20.7494667,6.63147337 19.7066124,5 16.5256932,5 C13.6112081,5 12.7967811,6.80703489 12.2666279,7.9118237 L12.2134962,7.9118237 C12.2134962,7.9118237 12.2666279,7.58530866 12.2666279,7.18386778 L12.2666279,6.70676649 C12.2666279,5.77864105 11.7104906,5.30153977 10.5706806,5.30153977 L8.10645724,5.30153977 C7.49524918,5.30153977 7,5.77056081 7,6.34939963 C7,6.92823845 7.49524918,7.39762678 8.10645724,7.39762678 C8.15299593,7.39762678 9.19274772,7.38477186 9.19274772,7.38477186 C9.56389374,7.38477186 9.77603258,7.56033338 9.77603258,7.93679898 L9.77603258,18 L12.3461315,18 L12.3461315,12.052578 C12.3461315,11.4248905 12.3992631,10.8478881 12.5846422,10.3458116 C13.1151832,8.51380138 13.9823541,7.23381834 16.0494474,7.23381834 C18.1960442,7.23381834 18.1785922,8.63941235 18.1785922,10.4211047 L18.1785922,16.3938692 C18.1785922,17.5236333 18.6823735,18 19.8745395,18 L21.5569129,18 L21.8598022,17.9871451 C22.5024239,17.9871451 23,17.4861704 23,16.9517728 C23,16.4181099 22.6839248,15.9175025 21.8660074,15.9175025" id="Fill-16" fill="#FEFEFE"></path>
                    <path d="M5.93188623,15.8171963 C5.8873503,15.8171963 5.32223054,15.8305877 5.32223054,15.8305877 C4.96407186,15.8305877 4.75935629,15.647699 4.75935629,15.2551387 L4.75935629,6.44472314 C4.75935629,5.26857264 4.2739521,4.77155915 3.12275449,4.77155915 L1.06811377,4.77155915 C0.478293413,4.77155915 0,5.26015517 0,5.8631523 C0,6.46653204 0.478293413,6.95512807 1.06811377,6.95512807 C1.1126497,6.95512807 1.74214072,6.94173664 1.74214072,6.94173664 C2.1002994,6.94173664 2.30501497,7.12462536 2.30501497,7.51718567 L2.30501497,16.326836 C2.30501497,17.5037517 2.79079341,18 3.94161677,18 L5.99625749,17.993113 C6.55538922,17.9590605 7,17.4888298 7,16.9084068 C7,16.3057923 6.52170659,15.8171963 5.93188623,15.8171963 L5.93188623,15.8171963 Z M3.47717066,2.18356892 L2.30127246,2.18356892 L2.30127246,0 L3.47717066,0 L3.47791916,0 C4.06736527,0 4.54528443,0.488596025 4.54528443,1.09197577 C4.54528443,1.6949729 4.06736527,2.18356892 3.47791916,2.18356892 L3.47717066,2.18356892 Z" id="Fill-18" fill="#FEFEFE"></path>
                    <path d="M30.8900556,16.8129933 C30.7928285,16.8129933 30.120406,16.8083931 30.0076226,16.7988094 C28.9828491,16.7102557 27.4416054,16.1444324 27.4416054,13.7611509 L27.4416054,7.82882334 C27.4416054,7.82882334 30.1223506,7.82307311 30.6563217,7.82307311 C31.1902928,7.82307311 31.7063742,7.31820232 31.7063742,6.73512831 C31.7063742,6.15167095 31.3544122,5.6744013 30.6010967,5.64718351 L30.2246335,5.64104993 L27.4416054,5.64104993 L27.4416054,2 L24.9168125,2 L24.9168125,5.64104993 L23.1095555,5.64104993 C22.4966359,5.64104993 22,6.1309701 22,6.73512831 C22,7.33928652 22.4966359,7.82882334 23.1095555,7.82882334 L24.8635321,7.82882334 L24.8635321,14.0494295 C24.8635321,18.3567402 28.1101388,18.9693321 29.8516704,18.9992333 C29.8995061,19 30.8445533,19 30.8900556,19 C31.5029751,19 32,18.5104632 32,17.906305 C32,17.3025301 31.5029751,16.8129933 30.8900556,16.8129933" id="Fill-20" fill="#FEFEFE"></path>
                    <g id="Group-24" transform="translate(50.000000, 5.000000)">
                        <mask id="mask-4" fill="white">
                            <use xlink:href="#path-3"></use>
                        </mask>
                        <g id="Clip-23"></g>
                        <path d="M14.8218537,0.0279918367 L13.4321951,0.0279918367 C12.3387317,0.0279918367 11.859122,0.304236735 11.459122,1.30782857 L11.0122927,2.44807347 C11.2983415,2.90725714 11.4641951,3.44027755 11.4641951,4.00929796 C11.4641951,5.72113469 9.98556098,7.11301224 8.16702439,7.11301224 C6.3484878,7.11301224 4.86907317,5.72113469 4.86907317,4.00929796 C4.86907317,3.53211429 4.98731707,3.08101224 5.19297561,2.67619592 L4.60565854,1.30782857 C4.1795122,0.304236735 3.77990244,0.0279918367 2.68565854,0.0279918367 L1.16643902,0.0279918367 L1.16643902,0.0353387755 C0.586536585,0.0717061224 0.126829268,0.520971429 0.126829268,1.0764 C0.126829268,1.65533878 0.625170732,2.12444082 1.23980488,2.12444082 C1.2862439,2.12444082 1.48643902,2.11158367 1.48643902,2.11158367 C1.91336585,2.11158367 2.15258537,2.21186939 2.33990244,2.61374694 L6.95297561,12.6786857 L6.33990244,14.0588082 C5.83258537,15.1887673 5.00682927,15.891502 3.96643902,15.891502 C2.8195122,15.891502 1.99336585,15.0131755 1.99336585,14.9881959 L0.926829268,16.7452163 C0.926829268,16.7452163 2.09873171,18.0000735 4.09873171,18.0000735 C5.99258537,18.0000735 7.61912195,16.9711347 8.44604878,15.0131755 L13.779122,2.61374694 C13.9660488,2.21186939 14.2052683,2.11158367 14.6321951,2.11158367 C14.6321951,2.11158367 14.819122,2.12333878 14.865561,2.12333878 C15.4801951,2.12333878 15.9348293,1.65533878 15.9348293,1.0764 C15.9348293,0.497093878 15.436878,0.0287265306 14.8218537,0.0279918367" id="Fill-22" fill="#FEFEFE" mask="url(#mask-4)"></path>
                        <path d="M10.6839024,4.00926122 C10.6839024,2.70040408 9.55726829,1.63950612 8.16721951,1.63950612 C6.77639024,1.63950612 5.65014634,2.70040408 5.65014634,4.00926122 C5.65014634,5.31811837 6.77639024,6.37828163 8.16721951,6.37828163 C9.55726829,6.37828163 10.6839024,5.31811837 10.6839024,4.00926122" id="Fill-1" fill="#9FC53A" mask="url(#mask-4)"></path>
                    </g>
                </g>
            </g>
        </g>
    </g>
</svg>