<?xml version="1.0" encoding="UTF-8"?>
<svg width="88px" height="69px" viewBox="0 0 88 69" version="1.1" xmlns="http://www.w3.org/2000/svg" xmlns:xlink="http://www.w3.org/1999/xlink">
    <!-- Generator: Sketch 58 (84663) - https://sketch.com -->
    <title>happy notification graphic</title>
    <desc>Created with Sketch.</desc>
    <g id="Page-1" stroke="none" stroke-width="1" fill="none" fill-rule="evenodd">
        <g id="Weekly-View" transform="translate(-943.000000, -249.000000)">
            <g id="Group-4">
                <g id="to-dos;-alerts,-tasks">
                    <g id="notifications" transform="translate(859.000000, 149.000000)">
                        <g id="happy-notification-graphic" transform="translate(84.000000, 101.000000)">
                            <path d="M41,7.92822052 C41,3.30940684 42.6666667,1 46,1 C49.3333333,1 50.9583333,3.37818182 50.875,8.13454545" id="Path-2" fill="#F2F5F8"></path>
                            <ellipse id="Oval" fill="#F2F5F8" cx="44" cy="58" rx="44" ry="10"></ellipse>
                            <path d="M63.5,45.1818182 L63.5,28.8181818 C63.5,18.7709091 58.17,10.36 48.875,8.13454545 L48.875,5.90909091 C48.875,3.19272727 46.6975,1 44,1 C41.3025,1 39.125,3.19272727 39.125,5.90909091 L39.125,8.13454545 C29.7975,10.36 24.5,18.7381818 24.5,28.8181818 L24.5,45.1818182 L18,51.7272727 L18,55 L70,55 L70,51.7272727 L63.5,45.1818182 Z M44.5,61 C48.075,61 51,58.3 51,55 L38,55 C38,58.3 40.8925,61 44.5,61 Z" id="Shape" stroke="#72808A" fill="#FFFFFF" fill-rule="nonzero"></path>
                            <path d="M31,28 C31.3603137,24.6666667 32.7553301,23 35.1850493,23 C37.6147684,23 38.8864187,24.6666667 39,28" id="Path-3" stroke="#72808A" stroke-linecap="round"></path>
                            <path d="M49,28 C49.3603137,24.6666667 50.7553301,23 53.1850493,23 C55.6147684,23 56.8864187,24.6666667 57,28" id="Path-3" stroke="#72808A" stroke-linecap="round"></path>
                            <path d="M39.0274765,39.2806401 C39.3027958,43.7602134 41.6471773,46 46.0606209,46 C50.3850303,46 52.9602285,43.8496702 53.7862155,39.5490105 L53.7862237,39.5490121 C53.8903928,39.0066356 53.5351556,38.4825067 52.992779,38.3783376 C52.8501183,38.3509381 52.7032008,38.3549491 52.5622475,38.3900916 C50.597973,38.8798246 48.8651291,39.1246911 47.363716,39.1246911 C45.7131149,39.1246911 43.3292457,38.8287446 40.2121085,38.2368515 L40.212102,38.2368858 C39.6695313,38.1338605 39.1461723,38.4901826 39.0431471,39.0327533 C39.0276419,39.1144099 39.0223777,39.197681 39.0274765,39.2806401 Z" id="Path-4" fill="#F2F5F8"></path>
                            <path d="M36.975204,39.3448902 C37.3065228,43.7816301 39.6683285,46 44.0606209,46 C48.3914967,46 50.9679261,43.8432345 51.7899092,39.5297035 L51.7899145,39.5297045 C51.8932977,38.9871792 51.5373027,38.4635669 50.9947774,38.3601837 C50.8544555,38.3334441 50.7100332,38.3370776 50.5712334,38.3708396 C48.6004523,38.8502173 46.8635892,39.1321593 45.3606441,39.2166657 C43.7172867,39.309067 41.3278569,39.001814 38.1923545,38.2949066 L38.1923533,38.2949119 C37.6535941,38.1734472 37.1183768,38.5117312 36.9969121,39.0504905 C36.9751517,39.1470094 36.9678359,39.2462234 36.975204,39.3448902 Z" id="Path-4" stroke="#72808A"></path>
                            <circle id="Oval" stroke="#72808A" fill="#F2F5F8" cx="81.5" cy="20.5" r="2.5"></circle>
                            <circle id="Oval" stroke="#72808A" fill="#F2F5F8" cx="12" cy="2" r="2"></circle>
                            <path d="M41,8 C41,4.66666667 42.18107,3 44.5432099,3 C46.9053498,3 48.056893,4.66666667 47.9978395,8 L41,8 Z" id="Path-2" fill="#F2F5F8"></path>
                        </g>
                    </g>
                </g>
            </g>
        </g>
    </g>
</svg>