<?xml version="1.0" encoding="UTF-8"?>
<svg width="101px" height="76px" viewBox="0 0 101 76" version="1.1" xmlns="http://www.w3.org/2000/svg" xmlns:xlink="http://www.w3.org/1999/xlink">
    <!-- Generator: Sketch 58 (84663) - https://sketch.com -->
    <title>No Result Graphic</title>
    <desc>Created with Sketch.</desc>
    <defs>
        <path d="M30.6630631,1.13686838e-13 L30.69,0 L30.6902181,35.9427569 C30.6811679,35.9427546 30.6721162,35.9427534 30.6630631,35.9427534 C26.1718947,35.9427534 22.0479246,36.2286265 18.2911529,36.8003727 C10.2772519,38.0200177 2.74418916,32.6521279 1.28074501,24.6791438 L0.249099774,19.0586416 C-1.24649735,10.9104915 4.14646349,3.09269044 12.2946138,1.59709447 L12.4586934,1.56791885 L12.4586934,1.56791885 C18.5327665,0.522639617 24.6008898,1.13686838e-13 30.6630631,1.13686838e-13 Z" id="path-1"></path>
        <path d="M30.6630631,1.13686838e-13 L30.69,0 L30.6902181,35.9427569 C30.6811679,35.9427546 30.6721162,35.9427534 30.6630631,35.9427534 C26.1718947,35.9427534 22.0479246,36.2286265 18.2911529,36.8003727 C10.2772519,38.0200177 2.74418916,32.6521279 1.28074501,24.6791438 L0.249099774,19.0586416 C-1.24649735,10.9104915 4.14646349,3.09269044 12.2946138,1.59709447 L12.4586934,1.56791885 L12.4586934,1.56791885 C18.5327665,0.522639617 24.6008898,1.13686838e-13 30.6630631,1.13686838e-13 Z" id="path-3"></path>
    </defs>
    <g id="Page-1" stroke="none" stroke-width="1" fill="none" fill-rule="evenodd">
        <g id="Staff-Directory---Search-by-Name---No-Results" transform="translate(-633.000000, -341.000000)">
            <g id="No-Result-Graphic" transform="translate(633.000000, 341.000000)">
                <g id="Group-5">
                    <ellipse id="Oval" fill="#F2F5F8" cx="56" cy="66" rx="44" ry="10"></ellipse>
                    <polygon id="Shape" fill="#72808A" points="76.4285714 0 76.4285714 3.42857143 73 3.42857143 73 4.57142857 76.4285714 4.57142857 76.4285714 8 77.5714286 8 77.5714286 4.57142857 81 4.57142857 81 3.42857143 77.5714286 3.42857143 77.5714286 0"></polygon>
                    <polygon id="Shape" fill="#72808A" points="97.7142857 30 97.7142857 31.7142857 96 31.7142857 96 32.2857143 97.7142857 32.2857143 97.7142857 34 98.2857143 34 98.2857143 32.2857143 100 32.2857143 100 31.7142857 98.2857143 31.7142857 98.2857143 30"></polygon>
                    <polygon id="Shape" fill="#72808A" points="1.71428571 6 1.71428571 7.71428571 0 7.71428571 0 8.28571429 1.71428571 8.28571429 1.71428571 10 2.28571429 10 2.28571429 8.28571429 4 8.28571429 4 7.71428571 2.28571429 7.71428571 2.28571429 6"></polygon>
                    <path d="M42,33.0017115 C42,23.0612342 49.834728,15 59.5,15 C69.165272,15 77,23.0612342 77,33.0017115 C77,42.9421888 69.165272,51 59.5,51 C49.834728,51 42,42.9421888 42,33.0017115 Z" id="Path" stroke="#72808A"></path>
                    <path d="M40,33.0020919 C40,20.8526196 49.625523,11 61.5,11 C73.374477,11 83,20.8526196 83,33.0020919 C83,45.1515641 73.374477,55 61.5,55 C49.625523,55 40,45.1515641 40,33.0020919 Z" id="Path" fill="#F2F5F8"></path>
                    <rect id="Rectangle" stroke="#72808A" fill="#FFFFFF" transform="translate(77.500000, 48.000000) rotate(-45.000000) translate(-77.500000, -48.000000) " x="74" y="45" width="7" height="6"></rect>
                    <path d="M38,33.0020919 C38,20.8526196 47.625523,11 59.5,11 C71.374477,11 81,20.8526196 81,33.0020919 C81,45.1515641 71.374477,55 59.5,55 C47.625523,55 38,45.1515641 38,33.0020919 Z" id="Path" stroke="#72808A" fill="#FFFFFF"></path>
                    <path d="M45,33.0019017 C45,21.9569269 53.0585774,13 63,13 C72.9414226,13 81,21.9569269 81,33.0019017 C81,44.0468765 72.9414226,53 63,53 C53.0585774,53 45,44.0468765 45,33.0019017 Z" id="Path" fill="#F2F5F8"></path>
                    <path d="M42,33.0017115 C42,23.0612342 49.834728,15 59.5,15 C69.165272,15 77,23.0612342 77,33.0017115 C77,42.9421888 69.165272,51 59.5,51 C49.834728,51 42,42.9421888 42,33.0017115 Z" id="Path-5" stroke="#72808A" fill="#FFFFFF"></path>
                    <g id="Group" transform="translate(11.000000, 3.000000)">
                        <g id="Cap" transform="translate(0.000000, 0.500000)">
                            <g id="Both-sides-of-cap">
                                <path d="M30.9726622,1.13686838e-13 L30.9995991,0 L30.9998172,35.9427569 C30.990767,35.9427546 30.9817153,35.9427534 30.9726622,35.9427534 C26.4814937,35.9427534 22.3575236,36.2286265 18.600752,36.8003727 C10.5868509,38.0200177 3.05378822,32.6521279 1.59034407,24.6791438 L0.558698831,19.0586416 C-0.936898293,10.9104915 4.45606255,3.09269044 12.6042129,1.59709447 L12.7682924,1.56791885 L12.7682924,1.56791885 C18.8423656,0.522639617 24.9104889,1.13686838e-13 30.9726622,1.13686838e-13 Z" id="Left" fill="#F5F5F5"></path>
                                <path d="M61.6630631,1.13686838e-13 L61.69,0 L61.6902181,35.9427569 C61.6811679,35.9427546 61.6721162,35.9427534 61.6630631,35.9427534 C57.1718947,35.9427534 53.0479246,36.2286265 49.2911529,36.8003727 C41.2772519,38.0200177 33.7441892,32.6521279 32.280745,24.6791438 L31.2490998,19.0586416 C29.7535027,10.9104915 35.1464635,3.09269044 43.2946138,1.59709447 L43.4586934,1.56791885 L43.4586934,1.56791885 C49.5327665,0.522639617 55.6008898,1.13686838e-13 61.6630631,1.13686838e-13 Z" id="Right" fill="#EDECEB" transform="translate(46.345200, 18.486515) scale(-1, 1) translate(-46.345200, -18.486515) "></path>
                            </g>
                        </g>
                        <g id="Bottom-Cap" transform="translate(0.000000, 0.500000)">
                            <g id="BC-Right" transform="translate(31.000000, 0.000000)">
                                <g id="Rectangle-2">
                                    <mask id="mask-2" fill="white">
                                        <use xlink:href="#path-1"></use>
                                    </mask>
                                    <g id="Mask" transform="translate(15.345200, 18.486515) scale(-1, 1) translate(-15.345200, -18.486515) "></g>
                                    <path d="M-30.4057143,34.4023497 C-20.0480255,30.9792303 -9.8077894,29.2676706 0.314994094,29.2676706 C10.4377776,29.2676706 20.4680177,30.9792303 30.4057143,34.4023497 L27.1916858,44.6717078 C19.400139,40.0865999 10.4412418,37.7940459 0.314994094,37.7940459 C-9.8112536,37.7940459 -18.7427672,40.0865999 -26.4795467,44.6717078 L-30.4057143,34.4023497 Z" fill="#72808A" mask="url(#mask-2)"></path>
                                </g>
                            </g>
                            <g id="BC-Left" transform="translate(15.500000, 18.500000) scale(-1, 1) translate(-15.500000, -18.500000) ">
                                <g id="Rectangle-2">
                                    <mask id="mask-4" fill="white">
                                        <use xlink:href="#path-3"></use>
                                    </mask>
                                    <g id="Mask" transform="translate(15.345200, 18.486515) scale(-1, 1) translate(-15.345200, -18.486515) "></g>
                                    <path d="M-29.3921905,34.4023497 C-19.0345017,30.9792303 -8.79426559,29.2676706 1.3285179,29.2676706 C11.4513014,29.2676706 21.4815415,30.9792303 31.4192381,34.4023497 L28.2052096,44.6717078 C20.4136628,40.0865999 11.4547656,37.7940459 1.3285179,37.7940459 C-8.79772979,37.7940459 -17.7292434,40.0865999 -25.4660229,44.6717078 L-29.3921905,34.4023497 Z" fill="#72808A" mask="url(#mask-4)"></path>
                                </g>
                            </g>
                        </g>
                        <g id="Cross" transform="translate(24.000000, 8.500000)">
                            <path d="M10,0 L9.999,4.999 L15,5 L15,10 L9.999,9.999 L10,15 L5,15 L4.999,9.999 L-2.45794496e-11,10 L-2.45776732e-11,5 L4.999,4.999 L5,0 L10,0 Z" id="Combined-Shape" fill="#F86E51"></path>
                            <path d="M10,0 L10,4.999 L15,5 L15,10 L10,9.999 L10,15 L7.5,15 L7.5,0 L10,0 Z" id="Combined-Shape" fill="#C63C22"></path>
                        </g>
                    </g>
                    <path d="M42,33.0017115 C42,23.0612342 49.834728,15 59.5,15 C69.165272,15 77,23.0612342 77,33.0017115 C77,42.9421888 69.165272,51 59.5,51 C49.834728,51 42,42.9421888 42,33.0017115 Z" id="Path-5" stroke="#72808A" fill-opacity="0.4" fill="#FFFFFF"></path>
                    <path d="M38,33.0020919 C38,20.8526196 47.625523,11 59.5,11 C71.374477,11 81,20.8526196 81,33.0020919 C81,45.1515641 71.374477,55 59.5,55 C47.625523,55 38,45.1515641 38,33.0020919 Z" id="Path" stroke="#72808A"></path>
                    <rect id="Rectangle" stroke="#72808A" fill="#FFFFFF" transform="translate(88.707107, 58.792893) rotate(-315.000000) translate(-88.707107, -58.792893) " x="75.2071068" y="53.7928932" width="27" height="10" rx="5"></rect>
                    <rect id="Rectangle" fill="#F2F5F8" transform="translate(89.000000, 58.000000) rotate(-315.000000) translate(-89.000000, -58.000000) " x="77" y="55" width="24" height="6" rx="3"></rect>
                </g>
                <g id="Group-7" transform="translate(49.000000, 23.500000)">
                    <path d="M0,4.5 C0.31527448,1.83333333 1.53591385,0.5 3.66191812,0.5 C5.78792239,0.5 6.90061635,1.83333333 7,4.5" id="Path-3" stroke="#72808A" stroke-linecap="round"></path>
                    <path d="M15,4.5 C15.3152745,1.83333333 16.5359139,0.5 18.6619181,0.5 C20.7879224,0.5 21.9006164,1.83333333 22,4.5" id="Path-3" stroke="#72808A" stroke-linecap="round"></path>
                    <path d="M7.03591141,14.7976068 C7.32448663,18.5992023 9.35225109,20.5 13.1192048,20.5 C16.7962096,20.5 19.0139804,18.6888946 19.7725172,15.0666837 L19.7724962,15.0666793 C19.8856938,14.5261317 19.539258,13.9961666 18.9987104,13.8829691 C18.8526234,13.8523766 18.701541,13.8548743 18.5565451,13.890279 C16.9352489,14.2861628 15.4992518,14.4841047 14.2485539,14.4841047 C12.8479661,14.4841047 10.8381964,14.2358751 8.21924475,13.7394161 L8.21923631,13.7394606 C7.67663953,13.6366038 7.15339598,13.9930834 7.05053914,14.5356802 C7.03418211,14.6219679 7.02926388,14.7100344 7.03591141,14.7976068 Z" id="Path-4" fill="#F2F5F8" transform="translate(13.500000, 17.000000) rotate(-180.000000) translate(-13.500000, -17.000000) "></path>
                    <path d="M5.05026803,14.8639903 C5.38740142,18.6213301 7.4203283,20.5 11.1490487,20.5 C14.8161417,20.5 17.0255348,18.6829173 17.7772278,15.0487518 L17.7771905,15.0487441 C17.8890532,14.5079281 17.5413179,13.9788274 17.0005019,13.8669647 C16.856209,13.8371191 16.7071034,13.8395306 16.5638511,13.8740266 C14.9468373,14.2634141 13.5158365,14.4935993 12.2708487,14.5645825 C10.8845277,14.6436237 8.88291606,14.3884487 6.26601383,13.7990576 L6.26601961,13.7990319 C5.72721699,13.6776802 5.19205618,14.0160911 5.0707045,14.5548937 C5.04787903,14.656239 5.04098417,14.7605221 5.05026803,14.8639903 Z" id="Path-4" stroke="#72808A" transform="translate(11.500000, 17.000000) rotate(-180.000000) translate(-11.500000, -17.000000) "></path>
                </g>
            </g>
        </g>
    </g>
</svg>